<svg width="130" height="155" viewBox="0 0 130 155" fill="none" xmlns="http://www.w3.org/2000/svg">
<path d="M65 130C100.899 130 130 100.899 130 65C130 29.1015 100.899 0 65 0C29.1015 0 0 29.1015 0 65C0 100.899 29.1015 130 65 130Z" fill="#96E4B1" fill-opacity="0.99"/>
<path d="M32 120.604C41.2259 126.601 51.9932 129.793 62.9969 129.793C74.0005 129.793 84.7679 126.601 93.9937 120.604V90H32V120.604Z" fill="#58D144"/>
<path d="M89.263 68.6472L88.4594 68.2763C85.7116 66.9805 83.3863 64.9339 81.7523 62.3728C79.9773 59.5304 77.5083 57.1864 74.5777 55.5614C71.647 53.9364 68.3511 53.0837 65 53.0837C61.649 53.0837 58.353 53.9364 55.4224 55.5614C52.4917 57.1864 50.0227 59.5304 48.2478 62.3728C46.6137 64.9339 44.2885 66.9805 41.5407 68.2763L40.7061 68.6472C27.2302 75.1688 28.0029 88.1502 32.5773 97.67C37.1517 107.19 43.8588 109.601 57.3039 103.079C59.6497 101.941 62.2229 101.35 64.83 101.35C67.4372 101.35 70.0104 101.941 72.3562 103.079V103.079C85.8322 109.601 92.5393 107.159 97.0828 97.67C101.626 88.1812 102.739 75.1688 89.263 68.6472Z" fill="white"/>
<path d="M61.9092 38.1408C61.9092 46.3624 57.8911 50.0714 52.9458 50.0714C48.0005 50.0714 43.9824 46.3624 43.9824 38.1408C43.9824 29.9192 48.0005 23.2739 52.9458 23.2739C57.8911 23.2739 61.9092 29.9501 61.9092 38.1408Z" fill="white"/>
<path d="M41.1697 53.0385C41.1697 61.2601 37.1517 64.9691 32.2064 64.9691C27.261 64.9691 23.243 61.2601 23.243 53.0385C23.243 44.817 27.261 38.1717 32.2064 38.1717C37.1517 38.1717 41.1697 44.8479 41.1697 53.0385Z" fill="white"/>
<path d="M68.0908 38.1408C68.0908 46.3624 72.1089 50.0714 77.0542 50.0714C81.9995 50.0714 86.0176 46.3624 86.0176 38.1408C86.0176 29.9192 81.9995 23.2739 77.0542 23.2739C72.1089 23.2739 68.0908 29.9501 68.0908 38.1408Z" fill="white"/>
<path d="M53.3664 114.08C54.3664 114.08 55.2731 114.313 56.0864 114.78C56.9131 115.233 57.5597 115.88 58.0264 116.72C58.4931 117.547 58.7264 118.513 58.7264 119.62C58.7264 120.727 58.4931 121.7 58.0264 122.54C57.5597 123.367 56.9131 124.013 56.0864 124.48C55.2731 124.933 54.3664 125.16 53.3664 125.16C51.9931 125.16 50.9131 124.727 50.1264 123.86V128.88H47.0064V114.24H49.9864V115.48C50.7597 114.547 51.8864 114.08 53.3664 114.08ZM52.8264 122.6C53.6264 122.6 54.2797 122.333 54.7864 121.8C55.3064 121.253 55.5664 120.527 55.5664 119.62C55.5664 118.713 55.3064 117.993 54.7864 117.46C54.2797 116.913 53.6264 116.64 52.8264 116.64C52.0264 116.64 51.3664 116.913 50.8464 117.46C50.3397 117.993 50.0864 118.713 50.0864 119.62C50.0864 120.527 50.3397 121.253 50.8464 121.8C51.3664 122.333 52.0264 122.6 52.8264 122.6ZM71.355 119.66C71.355 119.7 71.335 119.98 71.295 120.5H63.155C63.3017 121.167 63.6483 121.693 64.195 122.08C64.7417 122.467 65.4217 122.66 66.235 122.66C66.795 122.66 67.2883 122.58 67.715 122.42C68.155 122.247 68.5617 121.98 68.935 121.62L70.595 123.42C69.5817 124.58 68.1017 125.16 66.155 125.16C64.9417 125.16 63.8683 124.927 62.935 124.46C62.0017 123.98 61.2817 123.32 60.775 122.48C60.2683 121.64 60.015 120.687 60.015 119.62C60.015 118.567 60.2617 117.62 60.755 116.78C61.2617 115.927 61.9483 115.267 62.815 114.8C63.695 114.32 64.675 114.08 65.755 114.08C66.8083 114.08 67.7617 114.307 68.615 114.76C69.4683 115.213 70.135 115.867 70.615 116.72C71.1083 117.56 71.355 118.54 71.355 119.66ZM65.775 116.44C65.0683 116.44 64.475 116.64 63.995 117.04C63.515 117.44 63.2217 117.987 63.115 118.68H68.415C68.3083 118 68.015 117.46 67.535 117.06C67.055 116.647 66.4683 116.44 65.775 116.44ZM80.3722 124.48C80.0655 124.707 79.6855 124.88 79.2322 125C78.7922 125.107 78.3255 125.16 77.8322 125.16C76.5522 125.16 75.5589 124.833 74.8522 124.18C74.1589 123.527 73.8122 122.567 73.8122 121.3V116.88H72.1522V114.48H73.8122V111.86H76.9322V114.48H79.6122V116.88H76.9322V121.26C76.9322 121.713 77.0455 122.067 77.2722 122.32C77.5122 122.56 77.8455 122.68 78.2722 122.68C78.7655 122.68 79.1855 122.547 79.5322 122.28L80.3722 124.48Z" fill="white"/>
<path d="M88.8302 53.0385C88.8302 61.2601 92.8483 64.9691 97.7936 64.9691C102.739 64.9691 106.757 61.2601 106.757 53.0385C106.757 44.817 102.739 38.1717 97.7936 38.1717C92.8483 38.1717 88.8302 44.8479 88.8302 53.0385Z" fill="white"/>
<path d="M56.5692 73.5041L52.0292 84.2641H48.8092L44.2892 73.5041H47.5092L50.4892 80.8241L53.5692 73.5041H56.5692ZM57.8423 73.5041H60.9623V84.2641H57.8423V73.5041ZM59.4023 72.0041C58.829 72.0041 58.3623 71.8374 58.0023 71.5041C57.6423 71.1707 57.4623 70.7574 57.4623 70.2641C57.4623 69.7707 57.6423 69.3574 58.0023 69.0241C58.3623 68.6907 58.829 68.5241 59.4023 68.5241C59.9757 68.5241 60.4423 68.6841 60.8023 69.0041C61.1623 69.3241 61.3423 69.7241 61.3423 70.2041C61.3423 70.7241 61.1623 71.1574 60.8023 71.5041C60.4423 71.8374 59.9757 72.0041 59.4023 72.0041ZM74.538 73.5041L69.998 84.2641H66.778L62.258 73.5041H65.478L68.458 80.8241L71.538 73.5041H74.538ZM86.4381 73.5041V84.2641H83.4581V83.0241C82.6848 83.9574 81.5648 84.4241 80.0981 84.4241C79.0848 84.4241 78.1648 84.1974 77.3381 83.7441C76.5248 83.2907 75.8848 82.6441 75.4181 81.8041C74.9515 80.9641 74.7181 79.9907 74.7181 78.8841C74.7181 77.7774 74.9515 76.8041 75.4181 75.9641C75.8848 75.1241 76.5248 74.4774 77.3381 74.0241C78.1648 73.5707 79.0848 73.3441 80.0981 73.3441C81.4715 73.3441 82.5448 73.7774 83.3181 74.6441V73.5041H86.4381ZM80.6381 81.8641C81.4248 81.8641 82.0781 81.5974 82.5981 81.0641C83.1181 80.5174 83.3781 79.7907 83.3781 78.8841C83.3781 77.9774 83.1181 77.2574 82.5981 76.7241C82.0781 76.1774 81.4248 75.9041 80.6381 75.9041C79.8381 75.9041 79.1781 76.1774 78.6581 76.7241C78.1381 77.2574 77.8781 77.9774 77.8781 78.8841C77.8781 79.7907 78.1381 80.5174 78.6581 81.0641C79.1781 81.5974 79.8381 81.8641 80.6381 81.8641Z" fill="#3BF21D"/>
</svg>
